<svg class="diagram-root" style="background: #f5f6f6" xmlns="http://www.w3.org/2000/svg" xmlns:xlink="http://www.w3.org/1999/xlink"><style>.diagram-root { font-family: "Helvetica Neue", sans-serif; font-size: 12px; } .t { overflow: visible; } .t-bg { y: 40; fill: #fff;   } .th { fill: #005aa0;   } .tht { fill: #fff; font-size: 14px;  } .tf { fill: #323c46; overflow: visible; } .tf.pk { fill: #005aa0; font-weight: bold; } .tf.fk { font-weight: bold; } .ty { fill: #adb1b5; font-weight: normal; text-anchor: end; } .r { fill: transparent; stroke: #c3c3c3; stroke-width: 1; } .l { stroke: 1; } .i { fill: #c2c7ce; stroke: #c2c7ce; } .i.ix { fill: #afb3b6; stroke: #000; } .fa { fill: transparent; overflow: visible; } .fa .bg.hover { fill: #f7f7f7; } .c { cy: 12; r: 4; stroke: #d2d2dc; fill: #d2d2dc; } .hr { fill: transparent; stroke: #323c46; stroke-opacity: 0.035; stroke-width: 13; } .dc { stroke: #fa5a3c; fill: #fa5a3c; } .x { stroke: white; stroke-width: 1; } .hl .th { fill: #1b9bff; } .hl .tht {  } .fhl .bg { fill: #e7f4ff; } .fhls .bg {  } .r.hl { stroke: #1b9bff; } .dim { opacity: 0.25; }</style><g class="drawing-wrapper" transform="translate(-63.97, -44.31) scale(1,1)"><g class="rs"><path d="M 85.97 385.94 m -1, 0 a 1,1 0 1,0 2,0 a 1,1 0 1,0 -2,0 M 85.97 385.94 m -0.5, 0 a 0.5,0.5 0 1,0 1,0 a 0.5,0.5 0 1,0 -1,0  M85.97 385.94 L85.97 385.94 73.97 385.94 M 85.97 391.94 m -1, 0 a 1,1 0 1,0 2,0 a 1,1 0 1,0 -2,0 M 85.97 391.94 m -0.5, 0 a 0.5,0.5 0 1,0 1,0 a 0.5,0.5 0 1,0 -1,0  M85.97 391.94 L85.97 391.94 78.97 385.94 85.97 379.94 M 85.97 379.94 m -1, 0 a 1,1 0 1,0 2,0 a 1,1 0 1,0 -2,0 M 85.97 379.94 m -0.5, 0 a 0.5,0.5 0 1,0 1,0 a 0.5,0.5 0 1,0 -1,0  M73.97 385.94 C 23.97 385.94, 18.467999999999996 175.31, 83.14 175.31 M 95.14 175.31 m -1, 0 a 1,1 0 1,0 2,0 a 1,1 0 1,0 -2,0 M 95.14 175.31 m -0.5, 0 a 0.5,0.5 0 1,0 1,0 a 0.5,0.5 0 1,0 -1,0  M95.14 175.31 L95.14 175.31 83.14 175.31 M89.14 181.31 L89.14 181.31 89.14 169.31" id="h3646256287" class="r"></path><path d="M 337.75 423 m -1, 0 a 1,1 0 1,0 2,0 a 1,1 0 1,0 -2,0 M 337.75 423 m -0.5, 0 a 0.5,0.5 0 1,0 1,0 a 0.5,0.5 0 1,0 -1,0  M337.75 423 L337.75 423 325.75 423 M 337.75 429 m -1, 0 a 1,1 0 1,0 2,0 a 1,1 0 1,0 -2,0 M 337.75 429 m -0.5, 0 a 0.5,0.5 0 1,0 1,0 a 0.5,0.5 0 1,0 -1,0  M337.75 429 L337.75 429 330.75 423 337.75 417 M 337.75 417 m -1, 0 a 1,1 0 1,0 2,0 a 1,1 0 1,0 -2,0 M 337.75 417 m -0.5, 0 a 0.5,0.5 0 1,0 1,0 a 0.5,0.5 0 1,0 -1,0  M325.75 423 Q 305.6 423, 285.45 391.97 T 245.14 360.94 M 233.14 360.94 m -1, 0 a 1,1 0 1,0 2,0 a 1,1 0 1,0 -2,0 M 233.14 360.94 m -0.5, 0 a 0.5,0.5 0 1,0 1,0 a 0.5,0.5 0 1,0 -1,0  M233.14 360.94 L233.14 360.94 245.14 360.94 M239.14 366.94 L239.14 366.94 239.14 354.94" id="h211156328" class="r"></path><path d="M 412.69 156.31 m -1, 0 a 1,1 0 1,0 2,0 a 1,1 0 1,0 -2,0 M 412.69 156.31 m -0.5, 0 a 0.5,0.5 0 1,0 1,0 a 0.5,0.5 0 1,0 -1,0  M412.69 156.31 L412.69 156.31 400.69 156.31 M 412.69 162.31 m -1, 0 a 1,1 0 1,0 2,0 a 1,1 0 1,0 -2,0 M 412.69 162.31 m -0.5, 0 a 0.5,0.5 0 1,0 1,0 a 0.5,0.5 0 1,0 -1,0  M412.69 162.31 L412.69 162.31 405.69 156.31 412.69 150.31 M 412.69 150.31 m -1, 0 a 1,1 0 1,0 2,0 a 1,1 0 1,0 -2,0 M 412.69 150.31 m -0.5, 0 a 0.5,0.5 0 1,0 1,0 a 0.5,0.5 0 1,0 -1,0  M400.69 156.31 Q 369.1 156.31, 337.5 153.31 T 274.31 150.31 M 262.31 150.31 m -1, 0 a 1,1 0 1,0 2,0 a 1,1 0 1,0 -2,0 M 262.31 150.31 m -0.5, 0 a 0.5,0.5 0 1,0 1,0 a 0.5,0.5 0 1,0 -1,0  M262.31 150.31 L262.31 150.31 274.31 150.31 M268.31 156.31 L268.31 156.31 268.31 144.31" id="h1397587031" class="r"></path><path d="M 651.25 533.0899999999999 m -1, 0 a 1,1 0 1,0 2,0 a 1,1 0 1,0 -2,0 M 651.25 533.0899999999999 m -0.5, 0 a 0.5,0.5 0 1,0 1,0 a 0.5,0.5 0 1,0 -1,0  M651.25 533.0899999999999 L651.25 533.0899999999999 639.25 533.0899999999999 M 651.25 539.0899999999999 m -1, 0 a 1,1 0 1,0 2,0 a 1,1 0 1,0 -2,0 M 651.25 539.0899999999999 m -0.5, 0 a 0.5,0.5 0 1,0 1,0 a 0.5,0.5 0 1,0 -1,0  M651.25 539.0899999999999 L651.25 539.0899999999999 644.25 533.0899999999999 651.25 527.0899999999999 M 651.25 527.0899999999999 m -1, 0 a 1,1 0 1,0 2,0 a 1,1 0 1,0 -2,0 M 651.25 527.0899999999999 m -0.5, 0 a 0.5,0.5 0 1,0 1,0 a 0.5,0.5 0 1,0 -1,0  M639.25 533.0899999999999 Q 606.83 533.0899999999999, 574.41 478.04 T 509.56 423 M 497.56 423 m -1, 0 a 1,1 0 1,0 2,0 a 1,1 0 1,0 -2,0 M 497.56 423 m -0.5, 0 a 0.5,0.5 0 1,0 1,0 a 0.5,0.5 0 1,0 -1,0  M497.56 423 L497.56 423 509.56 423 M503.56 429 L503.56 429 503.56 417" id="h3177548053" class="r"></path><path d="M 660.28 271.02 m -1, 0 a 1,1 0 1,0 2,0 a 1,1 0 1,0 -2,0 M 660.28 271.02 m -0.5, 0 a 0.5,0.5 0 1,0 1,0 a 0.5,0.5 0 1,0 -1,0  M660.28 271.02 L660.28 271.02 648.28 271.02 M 660.28 277.02 m -1, 0 a 1,1 0 1,0 2,0 a 1,1 0 1,0 -2,0 M 660.28 277.02 m -0.5, 0 a 0.5,0.5 0 1,0 1,0 a 0.5,0.5 0 1,0 -1,0  M660.28 277.02 L660.28 277.02 653.28 271.02 660.28 265.02 M 660.28 265.02 m -1, 0 a 1,1 0 1,0 2,0 a 1,1 0 1,0 -2,0 M 660.28 265.02 m -0.5, 0 a 0.5,0.5 0 1,0 1,0 a 0.5,0.5 0 1,0 -1,0  M648.28 271.02 Q 613.6 271.02, 578.92 347.01 T 509.56 423 M 497.56 423 m -1, 0 a 1,1 0 1,0 2,0 a 1,1 0 1,0 -2,0 M 497.56 423 m -0.5, 0 a 0.5,0.5 0 1,0 1,0 a 0.5,0.5 0 1,0 -1,0  M497.56 423 L497.56 423 509.56 423 M503.56 429 L503.56 429 503.56 417" id="h3000826536" class="r"></path></g><g class="hrs"></g><g class="ts"><svg width="167.17" height="100" x="95.14" y="93.31" id="h475896179" class="t"><rect height="40" width="167.17" class="th"></rect><text x="13" y="25" class="tht">departments</text><rect height="60" width="167.17" class="t-bg"></rect><text x="13" y="61" class="tf pk">dept_no<tspan x="154.17" class="ty">VARCHAR</tspan></text><path d="M7,14A2,2 0 0,1 5,12A2,2 0 0,1 7,10A2,2 0 0,1 9,12A2,2 0 0,1 7,14M12.65,10C11.83,7.67 9.61,6 7, 6A6, 6 0 0, 0 1, 12A6, 6 0 0, 0 7, 18C9.61, 18 11.83, 16.33 12.65, 14H17V18H21V14H23V10H12.65Z" class="i pk" transform="translate(76.37898437499999, 48) scale(0.65)"></path><text x="13" y="86" class="tf fk">dept_name<tspan x="154.17" class="ty">VARCHAR</tspan></text></svg><svg width="147.17" height="150" x="85.97" y="303.94" id="h1090417462" class="t"><rect height="40" width="147.17" class="th"></rect><text x="13" y="25" class="tht">dept_emp</text><rect height="110" width="147.17" class="t-bg"></rect><text x="13" y="61" class="tf pk">emp_no<tspan x="134.17" class="ty">INT</tspan></text><path d="M7,14A2,2 0 0,1 5,12A2,2 0 0,1 7,10A2,2 0 0,1 9,12A2,2 0 0,1 7,14M12.65,10C11.83,7.67 9.61,6 7, 6A6, 6 0 0, 0 1, 12A6, 6 0 0, 0 7, 18C9.61, 18 11.83, 16.33 12.65, 14H17V18H21V14H23V10H12.65Z" class="i pk" transform="translate(94.83992187499999, 48) scale(0.65)"></path><text x="13" y="86" class="tf fk">dept_no<tspan x="134.17" class="ty">VARCHAR</tspan></text><text x="13" y="111" class="tf">from_date<tspan x="134.17" class="ty">DATE</tspan></text><text x="13" y="136" class="tf">to-date<tspan x="134.17" class="ty">DATE</tspan></text></svg><svg width="159.81" height="200" x="337.75" y="366" id="h1639608377" class="t"><rect height="40" width="159.81" class="th"></rect><text x="13" y="25" class="tht">employees</text><rect height="160" width="159.81" class="t-bg"></rect><text x="13" y="61" class="tf pk">emp_no<tspan x="146.81" class="ty">INT</tspan></text><path d="M7,14A2,2 0 0,1 5,12A2,2 0 0,1 7,10A2,2 0 0,1 9,12A2,2 0 0,1 7,14M12.65,10C11.83,7.67 9.61,6 7, 6A6, 6 0 0, 0 1, 12A6, 6 0 0, 0 7, 18C9.61, 18 11.83, 16.33 12.65, 14H17V18H21V14H23V10H12.65Z" class="i pk" transform="translate(107.479921875, 48) scale(0.65)"></path><text x="13" y="86" class="tf">birth_date<tspan x="146.81" class="ty">DATE</tspan></text><text x="13" y="111" class="tf">first_name<tspan x="146.81" class="ty">VARCHAR</tspan></text><text x="13" y="136" class="tf">last_name<tspan x="146.81" class="ty">VARCHAR</tspan></text><text x="13" y="161" class="tf">gender<tspan x="146.81" class="ty">VARCHAR</tspan></text><text x="13" y="186" class="tf">hire_date<tspan x="146.81" class="ty">DATE</tspan></text></svg><svg width="147.17" height="175" x="412.69" y="74.31" id="h1676682957" class="t"><rect height="40" width="147.17" class="th"></rect><text x="13" y="25" class="tht">dept_manager</text><rect height="135" width="147.17" class="t-bg"></rect><text x="13" y="61" class="tf pk">id<tspan x="134.17" class="ty">INT</tspan></text><path d="M7,14A2,2 0 0,1 5,12A2,2 0 0,1 7,10A2,2 0 0,1 9,12A2,2 0 0,1 7,14M12.65,10C11.83,7.67 9.61,6 7, 6A6, 6 0 0, 0 1, 12A6, 6 0 0, 0 7, 18C9.61, 18 11.83, 16.33 12.65, 14H17V18H21V14H23V10H12.65Z" class="i pk" transform="translate(94.83992187499999, 48) scale(0.65)"></path><text x="13" y="86" class="tf fk">dept_no<tspan x="134.17" class="ty">VARCHAR</tspan></text><text x="13" y="111" class="tf">emp_no<tspan x="134.17" class="ty">INT</tspan></text><text x="13" y="136" class="tf">from_date<tspan x="134.17" class="ty">DATE</tspan></text><text x="13" y="161" class="tf">to_date<tspan x="134.17" class="ty">DATE</tspan></text></svg><svg width="131.15" height="175" x="651.25" y="451.09" id="h2472833127" class="t"><rect height="40" width="131.15" class="th"></rect><text x="13" y="25" class="tht">salaries</text><rect height="135" width="131.15" class="t-bg"></rect><text x="13" y="61" class="tf pk">id<tspan x="118.15" class="ty">INT</tspan></text><path d="M7,14A2,2 0 0,1 5,12A2,2 0 0,1 7,10A2,2 0 0,1 9,12A2,2 0 0,1 7,14M12.65,10C11.83,7.67 9.61,6 7, 6A6, 6 0 0, 0 1, 12A6, 6 0 0, 0 7, 18C9.61, 18 11.83, 16.33 12.65, 14H17V18H21V14H23V10H12.65Z" class="i pk" transform="translate(78.819921875, 48) scale(0.65)"></path><text x="13" y="86" class="tf fk">emp_no<tspan x="118.15" class="ty">INT</tspan></text><text x="13" y="111" class="tf">salary<tspan x="118.15" class="ty">INT</tspan></text><text x="13" y="136" class="tf">from_date<tspan x="118.15" class="ty">DATE</tspan></text><text x="13" y="161" class="tf">to_date<tspan x="118.15" class="ty">DATE</tspan></text></svg><svg width="131.15" height="175" x="660.28" y="189.02" id="h311790747" class="t"><rect height="40" width="131.15" class="th"></rect><text x="13" y="25" class="tht">titles</text><rect height="135" width="131.15" class="t-bg"></rect><text x="13" y="61" class="tf pk">id<tspan x="118.15" class="ty">INT</tspan></text><path d="M7,14A2,2 0 0,1 5,12A2,2 0 0,1 7,10A2,2 0 0,1 9,12A2,2 0 0,1 7,14M12.65,10C11.83,7.67 9.61,6 7, 6A6, 6 0 0, 0 1, 12A6, 6 0 0, 0 7, 18C9.61, 18 11.83, 16.33 12.65, 14H17V18H21V14H23V10H12.65Z" class="i pk" transform="translate(78.819921875, 48) scale(0.65)"></path><text x="13" y="86" class="tf fk">emp_no<tspan x="118.15" class="ty">INT</tspan></text><text x="13" y="111" class="tf">title<tspan x="118.15" class="ty">VARCHAR</tspan></text><text x="13" y="136" class="tf">from_date<tspan x="118.15" class="ty">DATE</tspan></text><text x="13" y="161" class="tf">to_date<tspan x="118.15" class="ty">DATE</tspan></text></svg></g></g><text class="qdbd-link" x="10" y="20">www.quickdatabasediagrams.com</text></svg>